# xmcd CD database file generated by OrangeCD 4.3
#
# Track frame offsets:
#	150
#	17385
#	30435
#	46260
#	60885
#	81585
#	97410
#	114285
#	130410
#	144285
#
# Disc length: 2108 seconds
#
# Revision: 0
# Processed by: cddbd v1.4PL0 Copyright (c) Steve Scherf et al.
# Submitted via: OrangeCD 4.3
#
DISCID=79083a0a
DTITLE=Percy Sledge - When a man loves a woman
DYEAR=1900
DGENRE=Blues
TTITLE0=Make it good and make it last
TTITLE1=When a man loves a woman
TTITLE2=Walking in the sun
TTITLE3=Warm and Tender Love
TTITLE4=The good love
TTITLE5=Out of left field
TTITLE6=Behind closed doors
TTITLE7=Just out of reach
TTITLE8=I believe in you
TTITLE9=Take time to know her
EXTD=
EXTT0=
EXTT1=
EXTT2=
EXTT3=
EXTT4=
EXTT5=
EXTT6=
EXTT7=
EXTT8=
EXTT9=
PLAYORDER=
